<?xml version="1.0" encoding="UTF-8" standalone="no"?>
<svg
   version="1.1"
   x="0px"
   y="0px"
   width="20"
   height="20"
   viewBox="0.21 -0.077 20 20"
   enable-background="new 0.21 -0.077 110 110"
   xml:space="preserve"
   id="svg4"
   sodipodi:docname="no_python.svg"
   inkscape:version="1.4.2 (1:1.4.2+202505120737+ebf0e940d0)"
   xmlns:inkscape="http://www.inkscape.org/namespaces/inkscape"
   xmlns:sodipodi="http://sodipodi.sourceforge.net/DTD/sodipodi-0.dtd"
   xmlns="http://www.w3.org/2000/svg"
   xmlns:svg="http://www.w3.org/2000/svg"><defs
     id="defs4" /><sodipodi:namedview
     id="namedview4"
     pagecolor="#ffffff"
     bordercolor="#666666"
     borderopacity="1.0"
     inkscape:showpageshadow="2"
     inkscape:pageopacity="0.0"
     inkscape:pagecheckerboard="0"
     inkscape:deskcolor="#d1d1d1"
     inkscape:zoom="26.461399"
     inkscape:cx="13.07565"
     inkscape:cy="9.1831879"
     inkscape:window-width="1920"
     inkscape:window-height="987"
     inkscape:window-x="0"
     inkscape:window-y="28"
     inkscape:window-maximized="1"
     inkscape:current-layer="svg4" /><linearGradient
     id="SVGID_1_"
     gradientUnits="userSpaceOnUse"
     x1="63.815899"
     y1="56.682899"
     x2="118.4934"
     y2="1.8225"
     gradientTransform="matrix(0.18181818,0,0,-0.18181818,-9.5186181,12.015564)"> <stop
   offset="0"
   style="stop-color:#b8b8b8;stop-opacity:1;"
   id="stop1" /> <stop
   offset="1"
   style="stop-color:#366994"
   id="stop2" /></linearGradient><linearGradient
     id="SVGID_2_"
     gradientUnits="userSpaceOnUse"
     x1="97.044403"
     y1="21.632099"
     x2="155.6665"
     y2="-34.5308"
     gradientTransform="matrix(0.18181818,0,0,-0.18181818,-9.5186181,12.015564)"> <stop
   offset="0"
   style="stop-color:#FFE052"
   id="stop3" /> <stop
   offset="1"
   style="stop-color:#FFC331"
   id="stop4" /></linearGradient><path
     fill="url(#SVGID_1_)"
     d="m 10.176,-0.077 c -4.7220001,0 -4.7727273,1.8329091 -4.7727273,2.2101818 0,0.5723636 0,2.2898182 0,2.2898182 h 4.8636363 v 0.6874545 c 0,0 -5.064,0 -6.7954545,0 C 2.0261818,5.1104545 0.21,5.9891818 0.21,9.8831817 c 0,3.5769093 1.4167273,4.9601813 2.8465454,4.9601813 0.4245455,0 1.6989091,0 1.6989091,0 0,0 0,-1.775454 0,-2.386363 0,-0.998364 0.4947273,-2.8465456 2.8010909,-2.8465456 2.8927276,0 3.6310906,0 4.8238186,0 0.709454,0 2.710181,-0.3083636 2.710181,-2.6192727 0,-2.4458181 0,-3.2527272 0,-4.4034545 C 15.090727,2.0144545 14.992727,-0.077 10.176,-0.077 Z M 7.4941817,1.4628182 c 0.484,0 0.8750909,0.3909091 0.8750909,0.8750909 0,0.4838181 -0.3910909,0.8750909 -0.8750909,0.8750909 -0.484,0 -0.8750909,-0.3910909 -0.8750909,-0.8750909 0,-0.4841818 0.3910909,-0.8750909 0.8750909,-0.8750909 z"
     id="path2"
     style="fill:#d2d2d2;stroke-width:0.181818;fill-opacity:0.5" /><path
     fill="url(#SVGID_2_)"
     d="m 10.206209,19.923 c 4.719818,0 4.778545,-1.867455 4.778545,-2.210182 0,-0.572364 0,-2.289818 0,-2.289818 H 10.1153 v -0.687455 c 0,0 5.096727,0 6.795454,0 1.456182,0 3.261455,-0.900727 3.261455,-4.7727269 0,-4.2403636 -1.916,-4.9601818 -2.846546,-4.9601818 -0.424727,0 -1.698909,0 -1.698909,0 0,0 0,1.8574545 0,2.3863636 0,0.9983637 -0.478363,2.8465451 -2.801091,2.8465451 -2.8927267,0 -3.5410904,0 -4.8239994,0 -0.7076364,0 -2.7101818,0.344728 -2.7101818,2.619273 0,2.631818 0,3.320909 0,4.403455 0,0.950909 0.5810909,2.664727 4.9147272,2.664727 z m 2.682,-1.539818 c -0.484,0 -0.875091,-0.391091 -0.875091,-0.875091 0,-0.484 0.390909,-0.875091 0.875091,-0.875091 0.483818,0 0.875091,0.391091 0.875091,0.875091 0,0.484 -0.391273,0.875091 -0.875091,0.875091 z"
     id="path4"
     style="fill:#b4b4b4;fill-opacity:0.5;stroke:none;stroke-width:0.181818;stroke-opacity:1" /></svg>
